<svg width="12" height="12" viewBox="0 0 12 12" fill="none" xmlns="http://www.w3.org/2000/svg">
<g clip-path="url(#clip0_193_4291)">
<path d="M11.9997 6.00002C11.9997 5.18702 11.6427 4.42002 11.0372 3.93802C11.1072 3.12702 10.8172 2.33252 10.2422 1.75702C9.66721 1.18252 8.87471 0.891516 8.10371 0.979516C7.09671 -0.298484 4.92121 -0.322484 3.93771 0.962016C2.32121 0.770016 0.766705 2.29202 0.979705 3.89602C-0.298295 4.90302 -0.322795 7.07852 0.962205 8.06252C0.892205 8.87352 1.18221 9.66802 1.75721 10.2435C2.33221 10.818 3.12571 11.109 3.8957 11.021C4.90271 12.299 7.07821 12.323 8.06171 11.0385C8.87171 11.108 9.66671 10.819 10.2422 10.2435C10.8167 9.66852 11.1067 8.87352 11.0197 8.10502C11.6427 7.58102 11.9997 6.81402 11.9997 6.00102V6.00002ZM3.99971 4.50002C4.00271 3.84602 4.99671 3.84602 4.99971 4.50002C4.99671 5.15402 4.00271 5.15402 3.99971 4.50002ZM5.41571 7.77752C5.26171 8.00902 4.94921 8.06802 4.72221 7.91602C4.49221 7.76302 4.43021 7.45252 4.58371 7.22252L6.58371 4.22252C6.73671 3.99302 7.04671 3.93002 7.27721 4.08402C7.50721 4.23702 7.56921 4.54752 7.41571 4.77752L5.41571 7.77752ZM7.49971 8.00002C6.84571 7.99702 6.84571 7.00302 7.49971 7.00002C8.15371 7.00302 8.15371 7.99702 7.49971 8.00002Z" fill="white"/>
</g>
<defs>
<clipPath id="clip0_193_4291">
<rect width="12" height="12" fill="white"/>
</clipPath>
</defs>
</svg>
