<svg width="16" height="16" viewBox="0 0 16 16" fill="none" xmlns="http://www.w3.org/2000/svg">
<path d="M15.6953 14.2031L11.7216 10.2235C13.5256 7.69421 13.2916 4.16388 11.0293 1.89334C8.50858 -0.631113 4.41793 -0.631113 1.89235 1.89334C-0.633222 4.41779 -0.628347 8.51453 1.89235 11.0439C4.1644 13.3193 7.71386 13.5439 10.2346 11.7177L14.2033 15.6924C14.6129 16.1025 15.2808 16.1025 15.6904 15.6924C16.0999 15.2822 16.1048 14.6133 15.6953 14.2031ZM3.61833 9.32021C2.04837 7.74792 2.04837 5.19905 3.61833 3.62188C5.18828 2.04471 7.73336 2.04959 9.30819 3.62188C10.883 5.19417 10.8781 7.74304 9.30819 9.32021C7.73823 10.8974 5.18828 10.8925 3.61833 9.32021Z" fill="black" fill-opacity="0.5"/>
</svg>
