<svg width="20" height="20" viewBox="0 0 20 20" fill="none" xmlns="http://www.w3.org/2000/svg">
<path d="M4.49001 11.7172C4.49001 14.6034 7.64073 17.1358 9.54464 17.1358C10.6735 17.1358 12.2348 16.2456 13.3244 14.9241H15.7225V16.5165C15.7225 16.8883 15.7968 17.2564 15.9414 17.5998C16.0859 17.9433 16.2978 18.2553 16.565 18.5181C16.9751 18.9218 17.2512 19.4385 17.3569 19.9999L14.2174 18.8332C14.0003 18.756 13.8126 18.6147 13.68 18.4287C13.5473 18.2427 13.4761 18.021 13.476 17.7938V16.3949C13.1283 16.7167 12.7524 17.0078 12.3528 17.2646L11.2329 17.8546C10.7013 18.0911 10.1277 18.2226 9.54464 18.2416C8.96189 18.224 8.3883 18.094 7.85639 17.859L6.73651 17.2646C6.33686 17.0078 5.96099 16.7167 5.61326 16.3949V17.7938C5.61251 18.0238 5.53914 18.248 5.40331 18.4352C5.26747 18.6224 5.07589 18.7635 4.85506 18.8388L1.73242 19.9999C1.83811 19.4385 2.11422 18.9218 2.52431 18.5181C2.79144 18.2553 3.00334 17.9433 3.1479 17.5998C3.29245 17.2564 3.36682 16.8883 3.36675 16.5165V8.28911C3.36675 6.67605 4.01764 5.12904 5.17622 3.98843C6.33479 2.84782 7.90616 2.20703 9.54464 2.20703C11.1831 2.20703 12.7545 2.84782 13.9131 3.98843C15.0716 5.12904 15.7225 6.67605 15.7225 8.28911V13.8183H14.0545C14.4044 13.171 14.5912 12.4504 14.5993 11.7172V8.84203C13.3046 8.14435 12.1601 7.20538 11.2295 6.07745C10.2691 6.92341 8.46632 8.34441 4.49001 8.84203V11.7172Z" fill="#57823D"/>
<path d="M9.54425 13.2732C8.61476 13.2732 7.85938 13.7709 7.85938 14.3791C7.85938 14.9873 8.61476 15.4849 9.54425 15.4849C9.81171 15.4962 10.0787 15.4529 10.3283 15.3577C10.5779 15.2626 10.8049 15.1176 10.9949 14.932H13.324C13.6078 14.5908 13.8526 14.22 14.0541 13.8262H10.9949C10.8049 13.6405 10.5779 13.4956 10.3283 13.4004C10.0787 13.3053 9.81171 13.262 9.54425 13.2732Z" fill="#57823D"/>
<path d="M6.73687 11.0557C7.3574 11.0557 7.86045 10.6843 7.86045 10.2261C7.86045 9.76792 7.3574 9.39648 6.73687 9.39648C6.11633 9.39648 5.61328 9.76792 5.61328 10.2261C5.61328 10.6843 6.11633 11.0557 6.73687 11.0557Z" fill="#57823D"/>
<path d="M12.356 11.0557C12.9765 11.0557 13.4796 10.6843 13.4796 10.2261C13.4796 9.76792 12.9765 9.39648 12.356 9.39648C11.7355 9.39648 11.2324 9.76792 11.2324 10.2261C11.2324 10.6843 11.7355 11.0557 12.356 11.0557Z" fill="#57823D"/>
<path d="M1.12325 12.7171H2.2465V8.29375C2.2465 6.38739 3.01573 4.55912 4.38496 3.21112C5.75419 1.86313 7.61126 1.10583 9.54765 1.10583C11.484 1.10583 13.3411 1.86313 14.7103 3.21112C16.0796 4.55912 16.8488 6.38739 16.8488 8.29375V12.7171C16.8479 13.0101 16.7293 13.2909 16.5188 13.4981C16.3084 13.7053 16.0232 13.822 15.7255 13.8229V14.9287C16.3213 14.9287 16.8927 14.6957 17.3141 14.281C17.7354 13.8662 17.972 13.3037 17.972 12.7171C18.2699 12.7171 18.5556 12.6006 18.7663 12.3932C18.9769 12.1858 19.0953 11.9045 19.0953 11.6112V9.39958C19.0953 9.1063 18.9769 8.82502 18.7663 8.61764C18.5556 8.41026 18.2699 8.29375 17.972 8.29375C17.972 6.09411 17.0845 3.98456 15.5046 2.42918C13.9247 0.873803 11.7819 0 9.54765 0C7.31336 0 5.17058 0.873803 3.5907 2.42918C2.01082 3.98456 1.12325 6.09411 1.12325 8.29375C0.825347 8.29375 0.539644 8.41026 0.328993 8.61764C0.118343 8.82502 0 9.1063 0 9.39958V11.6112C0 11.9045 0.118343 12.1858 0.328993 12.3932C0.539644 12.6006 0.825347 12.7171 1.12325 12.7171Z" fill="#57823D"/>
</svg>
